#!OML:ASF E:\Style4\Style4.ASF
:FULLY-SPECIFIED
:DEGREES
1428
root -0.0400409 17.7274 -0.241744 3.27543 -4.97247 2.42139
lowerback 3.25715 2.80285 -0.236171
upperback -2.0946 3.67314 -1.61143
thorax -3.89141 1.81156 -1.7681
lowerneck 2.70011 -2.80307 -6.4694
upperneck 6.06766 -4.06651 5.29377
head 1.72982 -2.09465 2.80456
rclavicle 1.33007e-014 1.99779e-014
rhumerus -86.5568 52.2989 -123.266
rradius 83.2411
rwrist -0.527421
rhand -2.23047 31.4821
rfingers 7.12502
rthumb 23.4523 2.89139
lclavicle 1.33007e-014 1.99779e-014
lhumerus -30.2633 23.1303 19.9168
lradius 109.712
lwrist -12.9447
lhand -10.4692 34.2403
lfingers 7.12502
lthumb 15.5317 63.6366
rfemur -13.5982 5.82347 15.821
rtibia 32.9181
rfoot -21.2173 -12.1265
rtoes -12.9687
lfemur -10.4397 -0.339947 -21.6956
ltibia 29.9412
lfoot -22.8111 11.0921
ltoes -14.525
1429
root -0.0234683 17.7513 -0.231788 3.343 -5.00696 2.41921
lowerback 3.13372 2.75831 -0.086502
upperback -2.16295 3.62559 -1.50243
thorax -3.89136 1.78535 -1.73173
lowerneck 2.86677 -2.79426 -6.27403
upperneck 5.8027 -4.04513 5.0975
head 1.60133 -2.08337 2.70395
rclavicle -3.61058e-014 1.04362e-015
rhumerus -86.7222 52.3012 -123.282
rradius 83.35
rwrist -0.537516
rhand -2.01544 31.4605
rfingers 7.12502
rthumb 23.6586 2.89629
lclavicle -3.61058e-014 1.04362e-015
lhumerus -30.1564 22.9366 19.801
lradius 109.617
lwrist -13.4039
lhand -10.8336 34.6905
lfingers 7.12502
lthumb 15.1808 64.1136
rfemur -13.2807 5.982 15.7602
rtibia 32.2493
rfoot -20.8857 -12.2645
rtoes -13.1497
lfemur -9.9831 -0.378672 -21.7543
ltibia 29.0395
lfoot -22.5317 11.137
ltoes -14.2725
1430
root -0.00722905 17.7757 -0.222872 3.37215 -5.07112 2.47322
lowerback 3.09262 2.75413 0.00568184
upperback -2.22582 3.62799 -1.40131
thorax -3.93397 1.785 -1.67917
lowerneck 2.82665 -2.80277 -6.29246
upperneck 5.73206 -4.05424 5.12836
head 1.58744 -2.08718 2.71728
rclavicle 4.49226e-015 -7.85199e-015
rhumerus -86.7902 52.2382 -123.15
rradius 83.4848
rwrist -0.604244
rhand -1.89955 31.3163
rfingers 7.12502
rthumb 23.7697 2.76652
lclavicle 4.49226e-015 -7.85199e-015
lhumerus -29.9743 22.7769 19.801
lradius 109.54
lwrist -13.7391
lhand -11.0244 35.032
lfingers 7.12502
lthumb 14.997 64.4689
rfemur -12.9318 6.18772 15.6402
rtibia 31.5786
rfoot -20.5819 -12.3594
rtoes -13.4626
lfemur -9.4905 -0.441938 -21.8879
ltibia 28.1306
lfoot -22.2455 11.262
ltoes -14.1425
1431
root 0.0105456 17.8001 -0.214543 3.40369 -5.14262 2.6078
lowerback 3.0596 2.74611 0.0380761
upperback -2.3052 3.62096 -1.33394
thorax -4.00011 1.78085 -1.62856
lowerneck 2.79279 -2.81447 -6.40019
upperneck 5.68342 -4.07419 5.25722
head 1.58565 -2.09728 2.78054
rclavicle 1.20135e-014 -1.08338e-014
rhumerus -86.9141 52.2114 -123.122
rradius 83.591
rwrist -0.658734
rhand -1.95496 31.2181
rfingers 7.12502
rthumb 23.7166 2.66142
lclavicle 1.20135e-014 -1.08338e-014
lhumerus -29.8612 22.6288 19.7054
lradius 109.529
lwrist -13.7631
lhand -11.037 35.1066
lfingers 7.12502
lthumb 14.9848 64.5444
rfemur -12.6189 6.32711 15.4163
rtibia 30.9171
rfoot -20.2469 -12.3843
rtoes -13.7489
lfemur -9.00464 -0.566163 -22.1158
ltibia 27.2131
lfoot -22.0104 11.2802
ltoes -13.0393
